<?xml version="1.0" encoding="UTF-8" standalone="no"?>
<!DOCTYPE svg PUBLIC "-//W3C//DTD SVG 1.1//EN" "http://www.w3.org/Graphics/SVG/1.1/DTD/svg11.dtd">
<svg width="100%" height="100%" viewBox="0 0 16 16" version="1.1" xmlns="http://www.w3.org/2000/svg" xmlns:xlink="http://www.w3.org/1999/xlink" xml:space="preserve" xmlns:serif="http://www.serif.com/" style="fill-rule:evenodd;clip-rule:evenodd;stroke-linejoin:round;stroke-miterlimit:2;">
    <g>
        <g>
            <path d="M15,1.641l0,5.042l-5.042,0l0,-2.004l3.038,0l0,-3.038l2.004,0Z" style="fill:#eee;"/>
            <path d="M1.154,6.186c0.8,-2.985 3.526,-5.186 6.762,-5.186c2.567,0 4.813,1.385 6.032,3.448l-1.732,0.999c-0.873,-1.465 -2.473,-2.448 -4.3,-2.448c-2.304,0 -4.247,1.562 -4.825,3.684l-0.062,0l-1.875,-0.497Z" style="fill:#eee;"/>
        </g>
    </g>
    <g>
        <g>
            <path d="M0.916,14.359l0,-5.042l5.042,0l0,2.004l-3.038,0l0,3.038l-2.004,0Z" style="fill:#eee;"/>
            <path d="M14.762,9.814c-0.8,2.985 -3.526,5.186 -6.762,5.186c-2.567,0 -4.814,-1.385 -6.032,-3.447l1.732,-1c0.872,1.465 2.472,2.448 4.3,2.448c2.304,0 4.247,-1.562 4.825,-3.684l0.062,0l1.875,0.497Z" style="fill:#eee;"/>
        </g>
    </g>
</svg>
