<svg width="100%" height="100%" viewBox="0 0 16 16" version="1.1" xmlns="http://www.w3.org/2000/svg" xmlns:xlink="http://www.w3.org/1999/xlink" xml:space="preserve" xmlns:serif="http://www.serif.com/" style="fill-rule:evenodd;clip-rule:evenodd;stroke-linejoin:round;stroke-miterlimit:2;">
    <path fill="#eee" d="M9.834,1.155c-2.917,-0.782 -5.835,0.368 -7.511,2.649l0.937,0.71c1.402,-1.908 3.822,-2.874 6.268,-2.218c1.85,0.495 3.256,1.844 3.917,3.495l-2.246,-0.602l-0.306,1.141l3.993,1.07l1.07,-3.993l-1.141,-0.306l-0.473,1.765c-0.866,-1.768 -2.471,-3.165 -4.508,-3.711Zm2.906,10.331c-1.402,1.908 -3.822,2.874 -6.268,2.218c-1.87,-0.501 -3.266,-1.861 -3.935,-3.499l2.264,0.606l0.306,-1.141l-3.993,-1.07l-1.07,3.993l1.141,0.306l0.473,-1.765c0.868,1.75 2.451,3.16 4.508,3.711c2.917,0.782 5.835,-0.368 7.511,-2.649l-0.937,-0.71Z" style="fill-rule:nonzero;"/>
</svg>
