<?xml version="1.0" encoding="UTF-8" standalone="no"?><!DOCTYPE svg PUBLIC "-//W3C//DTD SVG 1.1//EN" "http://www.w3.org/Graphics/SVG/1.1/DTD/svg11.dtd"><svg width="100%" height="100%" viewBox="0 0 4 4" version="1.1" xmlns="http://www.w3.org/2000/svg" xmlns:xlink="http://www.w3.org/1999/xlink" xml:space="preserve" xmlns:serif="http://www.serif.com/" style="fill-rule:evenodd;clip-rule:evenodd;stroke-linejoin:round;stroke-miterlimit:2;"><g><g><path d="M3.35,0.62l0,1.031l-1.031,0l0,-0.41l0.621,0l0,-0.621l0.41,0Z" style="fill:#eee;"/><path d="M0.519,1.549c0.163,-0.61 0.721,-1.06 1.382,-1.06c0.525,0 0.985,0.283 1.234,0.705l-0.354,0.204c-0.179,-0.3 -0.506,-0.501 -0.88,-0.501c-0.471,0 -0.868,0.32 -0.986,0.754l-0.013,0l-0.383,-0.102Z" style="fill:#eee;"/></g></g><g><g><path d="M0.47,3.22l0,-1.031l1.031,0l0,0.41l-0.621,0l0,0.621l-0.41,0Z" style="fill:#eee;"/><path d="M3.301,2.291c-0.163,0.61 -0.721,1.06 -1.382,1.06c-0.525,0 -0.985,-0.283 -1.234,-0.705l0.354,-0.204c0.179,0.3 0.506,0.501 0.88,0.501c0.471,0 0.868,-0.32 0.986,-0.754l0.013,0l0.383,0.102Z" style="fill:#eee;"/></g></g></svg>